:FULLY-SPECIFIED
:FORCE-ALL-JOINTS-BE-3DOF
:DEGREES
1019
root 1.14863 15.1624 32.435 4.83752 -3.49657 3.57655
lfemur 8.45353 0.519052 5.71157
ltibia -5.24792e-014 0 0
lfoot -30.1295 -11.0044 -1.74166e-005
ltoes -34.3627 0 0
rfemur -31.5874 -15.9375 -6.01852
rtibia 50.1367 -0 0
rfoot -22.407 4.75212 0.00116045
rtoes -42.571 0 0
lowerback -1.40031 -0.144251 0.281443
upperback -0.539263 -0.181715 -5.92289
thorax 0.21074 -0.0985068 -6.30232
lowerneck -7.19483 0.941661 6.20999
upperneck 1.65536 0.56794 3.57259
head 1.75074 0.420695 0.0927265
lclavicle -2.28602e-015 -1.90833e-014 0
lhumerus -58.7214 -46.5758 115.459
lradius 55.6634 -0 0
lwrist 25.1765 0 0
lhand 37.1986 24.8321 0.00025676
lfingers 7.12502 -0 0
lthumb 60.0351 38.575 0.000123652
rclavicle -2.28602e-015 -1.90833e-014 0
rhumerus 2.83619 -23.8644 0.124256
rradius 27.6153 -0 0
rwrist -10.3498 0 0
rhand -30.7267 -42.9747 -0.000128957
rfingers 7.12502 -0 0
rthumb -4.01925 -72.9163 -0.000123055
1020
root 1.14915 15.162 32.4379 4.83457 -3.48916 3.56841
lfemur 8.46559 0.511284 5.71984
ltibia -5.24792e-014 0 0
lfoot -30.1332 -11.0065 -1.8457e-005
ltoes -34.3684 0 0
rfemur -31.5771 -15.9525 -6.01902
rtibia 50.1466 -0 0
rfoot -22.3806 4.82289 0.00116001
rtoes -42.4863 0 0
lowerback -1.41497 -0.137446 0.264466
upperback -0.536203 -0.171722 -5.93347
thorax 0.223262 -0.0932206 -6.30372
lowerneck -7.18976 0.935445 6.23289
upperneck 1.65861 0.557795 3.5751
head 1.75088 0.415947 0.0892815
lclavicle -2.28602e-015 -1.90833e-014 0
lhumerus -58.7157 -46.5872 115.446
lradius 55.6693 -0 0
lwrist 25.1853 0 0
lhand 37.2136 24.8595 0.000254845
lfingers 7.12502 -0 0
lthumb 60.0479 38.5889 0.00012091
rclavicle -2.28602e-015 -1.90833e-014 0
rhumerus 2.82388 -23.8622 0.133697
rradius 27.6008 -0 0
rwrist -10.3037 0 0
rhand -30.7118 -42.9407 -9.99718e-005
rfingers 7.12502 -0 0
rthumb -4.00492 -72.8826 -9.53571e-005
1021
root 1.14971 15.1616 32.4409 4.8321 -3.48276 3.56069
lfemur 8.47814 0.504591 5.72749
ltibia -5.24792e-014 0 0
lfoot -30.1371 -11.0095 -1.92132e-005
ltoes -34.3734 0 0
rfemur -31.5674 -15.9669 -6.02005
rtibia 50.1567 -0 0
rfoot -22.3541 4.89402 0.0011275
rtoes -42.4002 0 0
lowerback -1.43004 -0.13079 0.247397
upperback -0.533263 -0.161915 -5.94404
thorax 0.235864 -0.0880304 -6.30506
lowerneck -7.18413 0.929283 6.25566
upperneck 1.66097 0.547831 3.57749
head 1.75063 0.411248 0.0858193
lclavicle -2.28602e-015 -1.90833e-014 0
lhumerus -58.7097 -46.5976 115.433
lradius 55.6748 -0 0
lwrist 25.1942 0 0
lhand 37.2287 24.8868 0.000246098
lfingers 7.12502 -0 0
lthumb 60.0608 38.6026 0.000115263
rclavicle -2.28602e-015 -1.90833e-014 0
rhumerus 2.81175 -23.8606 0.14333
rradius 27.5866 -0 0
rwrist -10.2581 0 0
rhand -30.6975 -42.9072 -6.93365e-005
rfingers 7.12502 -0 0
rthumb -3.9911 -72.8494 -6.60841e-005
1022
root 1.15032 15.1612 32.4441 4.83007 -3.47717 3.55336
lfemur 8.49102 0.498804 5.73452
ltibia -5.24792e-014 0 0
lfoot -30.1413 -11.0131 -1.9633e-005
ltoes -34.3777 0 0
rfemur -31.5581 -15.9803 -6.02161
rtibia 50.1668 -0 0
rfoot -22.3276 4.9646 0.0010641
rtoes -42.3137 0 0
lowerback -1.44537 -0.124312 0.230273
upperback -0.530438 -0.152339 -5.95449
thorax 0.248469 -0.0829587 -6.30626
lowerneck -7.17806 0.923171 6.27813
upperneck 1.66242 0.53805 3.57978
head 1.75001 0.406598 0.082378
lclavicle -2.28602e-015 -1.90833e-014 0
lhumerus -58.7034 -46.6071 115.419
lradius 55.6799 -0 0
lwrist 25.2033 0 0
lhand 37.2438 24.9138 0.000230873
lfingers 7.12502 -0 0
lthumb 60.0737 38.616 0.000106959
rclavicle -2.28602e-015 -1.90833e-014 0
rhumerus 2.79962 -23.8591 0.153195
rradius 27.5728 -0 0
rwrist -10.2132 0 0
rhand -30.6838 -42.8743 -3.86837e-005
rfingers 7.12502 -0 0
rthumb -3.97781 -72.8168 -3.67969e-005
1023
root 1.15098 15.1608 32.4473 4.82842 -3.47223 3.5464
lfemur 8.50406 0.493753 5.74093
ltibia -5.24792e-014 0 0
lfoot -30.1456 -11.0172 -1.96532e-005
ltoes -34.3814 0 0
rfemur -31.549 -15.9927 -6.02371
rtibia 50.1766 -0 0
rfoot -22.3014 5.03369 0.00097234
rtoes -42.2278 0 0
lowerback -1.46082 -0.118042 0.213136
upperback -0.527717 -0.143035 -5.96473
thorax 0.261 -0.078028 -6.30722
lowerneck -7.17167 0.917109 6.30015
upperneck 1.6629 0.528456 3.58199
head 1.74901 0.401998 0.0789956
lclavicle -2.28602e-015 -1.90833e-014 0
lhumerus -58.6972 -46.616 115.405
lradius 55.6848 -0 0
lwrist 25.2125 0 0
lhand 37.2586 24.9404 0.000209787
lfingers 7.12502 -0 0
lthumb 60.0864 38.6292 9.63287e-005
rclavicle -2.28602e-015 -1.90833e-014 0
rhumerus 2.78731 -23.8577 0.163333
rradius 27.5595 -0 0
rwrist -10.1696 0 0
rhand -30.6705 -42.842 -9.68346e-006
rfingers 7.12502 -0 0
rthumb -3.96504 -72.7847 -9.09181e-006
